#N canvas 158 188 1043 357 10;
#X obj 805 216 dac~;
#X text 420 52 CutOff;
#X text 474 52 Reso;
#X text 513 52 EnvMod;
#X text 563 52 Decay;
#X obj 966 48 vradio 15 1 1 5 empty empty Source 0 -6 0 8 #bbbbbb #000000 #000000 3;
#X obj 966 157 s \$0-to;
#X msg 966 137 vco \$1;
#X msg 867 63 tune \$1;
#X obj 867 83 s \$0-to;
#X obj 714 158 r \$0-to;
#X text 982 47 Saw;
#X text 982 62 Square;
#X obj 430 74 vsl 25 128 0 1 0 1 empty empty empty 0 -8 0 8 #bbbbbb #000000 #000000 3700 1;
#X obj 476 74 vsl 25 128 0 1 0 1 empty empty empty 0 -8 0 8 #bbbbbb #000000 #000000 10400 1;
#X obj 522 74 vsl 25 128 0 1 0 1 empty empty empty 0 -8 0 8 #bbbbbb #000000 #000000 9000 1;
#X obj 568 74 vsl 25 128 0 1 0 1 empty empty empty 0 -8 0 8 #bbbbbb #000000 #000000 3400 1;
#X msg 430 222 cutoff \$1;
#X msg 476 242 reso \$1;
#X obj 476 309 s \$0-to;
#X msg 522 262 envmod \$1;
#X msg 568 282 decay \$1;
#X msg 272 85 pitch \$1;
#X obj 275 51 hsl 129 15 0 128 0 1 empty empty empty -2 -6 0 8 #bbbbbb #000000 #000000 2900 1;
#X obj 272 103 s \$0-to;
#X obj 704 177 bassemu2~;
#X msg 270 273 reset;
#X obj 270 291 s \$0-to;
#X obj 867 47 nbx 5 14 -1e+37 1e+37 0 1 empty empty VCO\ Tuning 0 -8 0 10 #bbbbbb #000000 #000000 440 256;
#X obj 826 159 nbx 5 14 -1e+37 1e+37 0 1 empty empty LevelOut 0 -8 0 10 #bbbbbb #000000 #000000 15 256;
#X obj 826 175 * 0.01;
#X obj 805 193 *~ 0;
#X floatatom 272 68 5 0 0 0 - - - 0;
#X text 301 30 Pitch;
#X obj 705 137 phasor~;
#X obj 704 28 nbx 5 14 -1e+37 1e+37 0 1 empty empty InLevel 0 -8 0 10 #bbbbbb #000000 #000000 37 256;
#X obj 704 44 * 0.01;
#X obj 13 42 tgl 15 0 empty empty random_sequence 17 7 0 10 #fcfcfc #000000 #000000 0 1;
#X obj 13 77 metro 200;
#X obj 38 60 nbx 5 14 -1e+37 1e+37 0 1 empty empty empty 0 -8 0 10 #bbbbbb #000000 #000000 150 256;
#X obj 52 114 random 42;
#X obj 13 95 t b b b;
#X obj 13 259 delay;
#X obj 59 241 * 0.8;
#X msg 32 239 1;
#X msg 13 277 0;
#X obj 13 313 s \$0-to;
#X msg 13 295 gate \$1;
#X msg 98 151 pitch \$1;
#X obj 98 169 s \$0-to;
#X obj 98 133 + 12;
#X obj 103 98 nbx 5 14 0 1e+37 0 1 empty empty empty 0 -8 0 10 #bbbbbb #000000 #000000 13 256;
#X obj 119 114 nbx 5 14 -1e+37 1e+37 0 1 empty empty empty 0 -8 0 10 #bbbbbb #000000 #000000 33 256;
#X obj 78 187 nbx 5 14 -1e+37 1e+37 0 1 empty empty empty 0 -8 0 10 #bbbbbb #000000 #000000 75 256;
#X obj 78 203 * 0.01;
#X obj 78 221 t b f;
#X text 500 20 bassemu2~;
#X text 260 255 Reset note.;
#X obj 705 120 nbx 5 14 -1e+37 1e+37 0 1 empty empty FreqExt. 0 -8 0 10 #bbbbbb #000000 #000000 99 256;
#X obj 343 78 tgl 15 0 empty empty empty 17 7 0 10 #fcfcfc #000000 #000000 0 1;
#X text 364 73 Gate;
#X msg 343 98 gate \$1;
#X obj 343 116 s \$0-to;
#X obj 13 5 key;
#X obj 13 23 sel 113;
#X text 51 4 press 'q';
#X obj 341 255 tgl 15 1 empty empty reset_osc 17 7 0 10 #bbbbbb #000000 #000000 1 1;
#X msg 341 273 rst \$1;
#X obj 341 291 s \$0-to;
#X obj 703 272 s~ \$0-a;
#X obj 805 47 nbx 5 14 0 100 0 1 empty empty PW 0 -8 0 10 #bbbbbb #000000 #000000 46 256;
#X obj 805 63 * 0.01;
#X msg 805 81 pw \$1;
#X obj 805 99 s \$0-to;
#X obj 890 231 tabwrite~ \$0-scope;
#X obj 902 212 bng 15 250 50 0 empty empty empty 17 7 0 10 #fcfcfc #000000 #000000;
#X obj 891 124 r~ \$0-a;
#N canvas 0 50 450 250 (subpatch) 0;
#X array \$0-scope 1024 float 2;
#X coords 0 1 1024 -1 200 80 1 0 0;
#X restore 818 255 graph;
#X obj 341 169 nbx 5 14 0 100 0 1 empty empty Rel 0 -8 0 10 #bbbbbb #000000 #000000 15 256;
#X obj 341 185 * 0.01;
#X obj 341 221 s \$0-to;
#X msg 341 203 rel \$1;
#X obj 724 216 nbx 5 14 -1e+37 1e+37 0 1 empty empty Level 0 -8 0 10 #bbbbbb #000000 #000000 156 256;
#X obj 724 232 * 0.01;
#X obj 703 250 *~ 0;
#X obj 902 144 r \$0-to;
#X obj 902 190 sel 1;
#X obj 902 167 route gate;
#X text 982 108 ExtIn;
#X text 982 78 SawS;
#X text 982 92 SquareS;
#X obj 704 81 s \$0-to;
#X msg 704 63 in \$1;
#X obj 617 74 vsl 25 128 0 1 0 1 empty empty empty 0 -8 0 8 #bbbbbb #000000 #000000 12500 1;
#X msg 617 310 accent \$1;
#X text 613 52 Accent;
#X obj 179 112 i;
#X obj 179 134 + 1;
#X obj 179 156 % 4;
#X obj 179 178 == 0;
#X obj 179 246 s \$0-to;
#X msg 179 227 acc \$1;
#X obj 179 203 tgl 17 0 empty empty empty 0 -9 0 10 #fcfcfc #000000 #000000 0 1;
#X connect 5 0 7 0;
#X connect 7 0 6 0;
#X connect 8 0 9 0;
#X connect 10 0 25 0;
#X connect 13 0 17 0;
#X connect 14 0 18 0;
#X connect 15 0 20 0;
#X connect 16 0 21 0;
#X connect 17 0 19 0;
#X connect 18 0 19 0;
#X connect 20 0 19 0;
#X connect 21 0 19 0;
#X connect 22 0 24 0;
#X connect 23 0 32 0;
#X connect 25 0 84 0;
#X connect 25 0 31 0;
#X connect 26 0 27 0;
#X connect 28 0 8 0;
#X connect 29 0 30 0;
#X connect 30 0 31 1;
#X connect 31 0 0 0;
#X connect 31 0 0 1;
#X connect 32 0 22 0;
#X connect 34 0 25 0;
#X connect 35 0 36 0;
#X connect 36 0 92 0;
#X connect 37 0 38 0;
#X connect 38 0 41 0;
#X connect 39 0 38 1;
#X connect 39 0 43 0;
#X connect 40 0 50 0;
#X connect 41 0 42 0;
#X connect 41 1 44 0;
#X connect 41 2 40 0;
#X connect 41 2 96 0;
#X connect 42 0 45 0;
#X connect 43 0 42 1;
#X connect 44 0 47 0;
#X connect 45 0 47 0;
#X connect 47 0 46 0;
#X connect 48 0 49 0;
#X connect 50 0 48 0;
#X connect 51 0 40 1;
#X connect 52 0 50 1;
#X connect 53 0 54 0;
#X connect 54 0 55 0;
#X connect 55 0 43 0;
#X connect 55 1 43 1;
#X connect 58 0 34 0;
#X connect 59 0 61 0;
#X connect 61 0 62 0;
#X connect 63 0 64 0;
#X connect 64 0 37 0;
#X connect 66 0 67 0;
#X connect 67 0 68 0;
#X connect 70 0 71 0;
#X connect 71 0 72 0;
#X connect 72 0 73 0;
#X connect 75 0 74 0;
#X connect 76 0 74 0;
#X connect 78 0 79 0;
#X connect 79 0 81 0;
#X connect 81 0 80 0;
#X connect 82 0 83 0;
#X connect 83 0 84 1;
#X connect 84 0 69 0;
#X connect 85 0 87 0;
#X connect 86 0 75 0;
#X connect 87 0 86 0;
#X connect 92 0 91 0;
#X connect 93 0 94 0;
#X connect 94 0 19 0;
#X connect 96 0 97 0;
#X connect 97 0 98 0;
#X connect 98 0 96 1;
#X connect 98 0 99 0;
#X connect 99 0 102 0;
#X connect 101 0 100 0;
#X connect 102 0 101 0;
